<?xml version="1.0" encoding="UTF-8"?><svg xmlns="http://www.w3.org/2000/svg" viewBox="235 468 615 150"><path fill="#fe9fb7" d="M490.08698,538.80621c-.75066-3.55846-1.78922-7.03677-2.87669-10.37322-1.31945-4.04819-2.82802-9.64987-5.25432-12.72999-.71623-.90923-1.68965-1.62488-2.82187-2.06854-1.13012-.44369-2.37259-.59743-3.59139-.44641-1.41413.17523-2.9327.84518-3.86622,2.01608-1.13205,1.4199-1.05165,3.3641-1.69599,5.00085-.30705.77998-1.04878,1.81498-1.88379,1.88852-1.36994.12064-2.04562-.74914-2.36157-2.10854-2.02024-8.6932-6.78311-18.16763-12.60045-25.37731-7.28724-9.03394-17.10557-16.13298-28.43731-20.56144-.9983-.4226-2.09835-.61622-3.19839-.56396-1.09998.05226-2.17201.34831-3.11653.86084-.94667.51468-1.73996,1.22896-2.31073,2.08626-.57076.85513-.90163,1.82597-.9646,2.82412-.53736,8.51794-2.20916,17.032-5.36818,24.97752-1.58774,3.99347-3.58068,7.76234-5.92698,11.35923-3.01175,4.61703-7.47379,9.0421-10.4299,13.7998-16.4723,26.51127-3.20938,61.54314,24.27624,74.4738,3.18607,1.49889,6.52947,2.66341,9.96502,3.43805,3.66278.82588,7.41606,1.23935,11.17059,1.23935,29.20552,0,52.88127-24.82562,52.88127-55.44946,0-4.68612-.58728-9.54063-1.58822-14.28556Z"/><path fill="#fff" d="M778.9278,608.54123c-11.76832-.00289-21.01413-2.86319-27.73744-8.58088-6.61197-5.71766-9.91574-13.28383-9.91342-22.69846.00242-9.86228,3.36662-17.48353,10.09272-22.86167,6.83743-5.37811,16.64576-8.0656,29.42275-8.06245l28.4121.00699c1.29989.00032,2.35391-1.05319,2.35423-2.35307l.00041-1.68119c.00303-12.32941-7.16992-18.49482-21.51469-18.49835-11.09576-.00273-18.19115,3.66844-21.28275,11.01353-.52512,1.24759-1.70345,2.09406-3.05705,2.09373l-18.42202-.00452c-2.26791-.00056-3.91375-2.17671-3.29134-4.35754,2.46497-8.63692,7.16948-15.36484,14.11347-20.18514,8.18249-5.71403,18.83138-8.56943,31.94462-8.5662,14.79446.00364,26.05756,3.36879,33.78941,10.09543,7.73182,6.61528,11.59616,16.31038,11.59301,29.08737l-.00893,36.31366c-.00032,1.29989,1.05319,2.35391,2.35307,2.35423l6.16691.00152c1.88652.00046,3.41547,1.53017,3.41501,3.41669l-.00448,18.21799c-.00046,1.88652-1.53017,3.41547-3.41669,3.41501l-18.89044-.00464c-1.88652-.00046-3.41547-1.53017-3.41501-3.41669l.00255-10.36991c.00032-1.29989-1.05319-2.35391-2.35307-2.35423l-3.41709-.00084c-.80372-.0002-1.53943.41965-1.97999,1.09186-3.4014,5.18991-7.87986,9.25241-13.43545,12.18574-5.83032,3.13607-13.00306,4.70414-21.52039,4.70204ZM782.63118,589.20847c5.49119.00135,10.42359-1.00614,14.79521-3.02247,4.37158-2.12773,7.7893-4.93027,10.25725-8.40341,2.57733-3.5866,3.86865-7.5644,3.86972-11.93549h0c.00032-1.29989-1.05319-2.35391-2.35307-2.35423l-27.06712-.00666c-11.32074-.00278-16.98106,4.19879-16.98312,12.60472-.00102,4.14621,1.51125,7.39757,4.53681,9.752,3.13699,2.24306,7.45101,3.36419,12.94432,3.36554Z"/><path fill="#fff" d="M682.2413,608.62664c-10.42334-.00256-19.558-2.13358-27.40179-6.39523-7.84582-4.37302-13.95124-10.48353-18.32043-18.32944-4.36913-7.84592-6.55242-17.09297-6.5498-27.74118.00262-10.64822,2.1337-19.89421,6.39535-27.738,4.37299-7.84377,10.4814-13.89455,18.3294-18.15231,7.84592-4.36916,17.03621-6.55246,27.57307-6.54987,12.99979.0032,23.75856,3.31147,32.27638,9.92694,7.42399,5.66846,12.46289,13.29612,15.11669,22.88296.60506,2.18577-1.02467,4.35573-3.29264,4.35517l-18.39089-.00455c-1.38154-.00034-2.60739-.8441-3.15074-2.11431-1.71454-4.00813-4.24965-7.11445-7.60257-9.32037-3.92284-2.5795-8.90932-3.86891-14.9616-3.8704-8.29454-.00204-14.90857,2.68623-19.83999,8.06481-4.93345,5.26721-7.40034,12.7752-7.40274,22.52608-.0024,9.75088,2.46079,17.31684,7.39162,22.69784,4.9288,5.26961,11.54153,7.9044,19.83607,7.90644,12.06543.00297,19.78922-4.82306,23.1697-14.47653.48441-1.38331,1.76623-2.32917,3.2319-2.32881l18.47901.00452c2.23962.00055,3.85117,2.11687,3.30641,4.28922-2.55244,10.17848-7.57546,18.27545-15.07052,24.28806-8.5211,6.72265-19.561,10.08228-33.12188,10.07895Z"/><path fill="#fff" d="M588.99672,605.56096l.02312-91.76227c.00046-1.88652,1.53017-3.41547,3.41669-3.41501l18.21795.00448c1.88652.00046,3.41547,1.53017,3.41501,3.41669l-.02312,91.76227c-.00046,1.88652-1.53017,3.41547-3.41669,3.41501l-18.21795-.00448c-1.88652-.00046-3.41547-1.53017-3.41501-3.41669ZM601.46416,499.29007c-3.92136-.00096-7.28342-1.34674-10.0861-4.03732-2.68921-2.80195-4.03336-6.16464-4.0324-10.08812s1.34676-7.22878,4.03732-9.91801c2.80403-2.80059,6.16677-4.20145,10.08813-4.20049,3.92348.00096,7.22876,1.40347,9.91797,4.20541,2.80275,2.69059,4.20149,5.99656,4.20053,9.92004s-1.40135,7.28549-4.20545,10.08609c-2.69056,2.68923-5.99652,4.03337-9.92,4.03241Z"/><path fill="#fff" d="M539.97509,608.53455c-6.61338-.00163-11.76791-1.68409-15.46568-5.04735-3.58641-3.36327-5.37771-8.46401-5.37603-15.30015l.01337-61.6856c.00046-1.88652-1.52849-3.41622-3.41501-3.41669l-10.98888-.0027c-1.88652-.00046-3.41547-1.53017-3.41501-3.41669l.00312-12.67007c.00046-1.88652,1.53017-3.41547,3.41669-3.41501l11.157.00274c1.88652.00046,3.41622-1.52849,3.41669-3.41501l.00576-25.7069c.00046-1.88652,1.53017-3.41547,3.41669-3.41501l17.71362.00436c1.88652.00046,3.41547,1.53017,3.41501,3.41669l-.00576,25.7069c-.00046,1.88652,1.52849,3.41622,3.41501,3.41669l17.54553.00431c1.88652.00046,3.41547,1.53017,3.41501,3.41669l-.00312,12.67007c-.00046,1.88652-1.53017,3.41547-3.41669,3.41501l-17.20928-.00423c-1.88652-.00046-3.41622,1.52849-3.41669,3.41501l-.01269,58.94225c-.00046,1.88652,1.52849,3.41622,3.41501,3.41669l19.56293.00481c1.88652.00046,3.41547,1.53017,3.41501,3.41669l-.00316,12.83819c-.00046,1.88652-1.53017,3.41547-3.41669,3.41501l-27.18175-.00668Z"/><path fill="#fff" d="M245.64213,605.0963l.0318-130.66341c.00046-1.88652,1.53017-3.41547,3.41669-3.41501l18.89048.00464c1.88652.00046,3.41547,1.53017,3.41501,3.41669l-.01171,48.95773c-.00046,1.88652,1.52849,3.41622,3.41501,3.41669l63.61001.01564c1.88652.00046,3.41622-1.52849,3.41669-3.41501l.01171-48.95773c.00046-1.88652,1.53017-3.41547,3.41669-3.41501l18.72235.0046c1.88652.00046,3.41547,1.53017,3.41501,3.41669l-.0318,130.66341c-.00046,1.88652-1.53017,3.41547-3.41669,3.41501l-18.72235-.0046c-1.88652-.00046-3.41547-1.53017-3.41501-3.41669l.01295-52.68233c.00046-1.88652-1.52849-3.41622-3.41501-3.41669l-63.61001-.01564c-1.88652-.00046-3.41622,1.52849-3.41669,3.41501l-.01295,52.68233c-.00046,1.88652-1.53017,3.41547-3.41669,3.41501l-18.89048-.00464c-1.88652-.00046-3.41547-1.53017-3.41501-3.41669Z"/></svg>
